<?xml version="1.0" encoding="UTF-8" standalone="no"?>
<!-- Created with Inkscape (http://www.inkscape.org/) -->

<svg
   xmlns:dc="http://purl.org/dc/elements/1.1/"
   xmlns:cc="http://creativecommons.org/ns#"
   xmlns:rdf="http://www.w3.org/1999/02/22-rdf-syntax-ns#"
   xmlns:svg="http://www.w3.org/2000/svg"
   xmlns="http://www.w3.org/2000/svg"
   xmlns:xlink="http://www.w3.org/1999/xlink"
   xmlns:sodipodi="http://sodipodi.sourceforge.net/DTD/sodipodi-0.dtd"
   xmlns:inkscape="http://www.inkscape.org/namespaces/inkscape"
   version="1.1"
   width="270.78571"
   height="183.85716"
   id="svg2"
   inkscape:version="0.48.0 r9654"
   sodipodi:docname="super.svg">
  <metadata
     id="metadata88">
    <rdf:RDF>
      <cc:Work
         rdf:about="">
        <dc:format>image/svg+xml</dc:format>
        <dc:type
           rdf:resource="http://purl.org/dc/dcmitype/StillImage" />
      </cc:Work>
    </rdf:RDF>
  </metadata>
  <sodipodi:namedview
     pagecolor="#ffffff"
     bordercolor="#666666"
     borderopacity="1"
     objecttolerance="10"
     gridtolerance="10"
     guidetolerance="10"
     inkscape:pageopacity="0"
     inkscape:pageshadow="2"
     inkscape:window-width="1920"
     inkscape:window-height="1200"
     id="namedview86"
     showgrid="false"
     inkscape:zoom="1.4142136"
     inkscape:cx="319.29546"
     inkscape:cy="-37.299499"
     inkscape:window-x="1280"
     inkscape:window-y="0"
     inkscape:window-maximized="1"
     inkscape:current-layer="svg2"
     fit-margin-top="0"
     fit-margin-left="0"
     fit-margin-right="0"
     fit-margin-bottom="0"
     inkscape:showpageshadow="false"
     showborder="false"
     inkscape:snap-global="false" />
  <title
     id="title2885">Keyboard Keys</title>
  <defs
     id="defs4">
    <linearGradient
       id="linearGradient3165">
      <stop
         id="stop3171"
         style="stop-color:#d7d7d7;stop-opacity:1"
         offset="0" />
      <stop
         id="stop3173"
         style="stop-color:#e7e7e7;stop-opacity:1"
         offset="0.5" />
      <stop
         id="stop3169"
         style="stop-color:#d7d7d7;stop-opacity:1"
         offset="1" />
    </linearGradient>
    <linearGradient
       id="linearGradient3141">
      <stop
         id="stop3143"
         style="stop-color:#d8d8d8;stop-opacity:1"
         offset="0" />
      <stop
         id="stop3145"
         style="stop-color:#a3a3a3;stop-opacity:1"
         offset="1" />
    </linearGradient>
    <linearGradient
       x1="168.57144"
       y1="200.43361"
       x2="168.57144"
       y2="384.29077"
       id="linearGradient2905"
       xlink:href="#linearGradient3141"
       gradientUnits="userSpaceOnUse" />
    <linearGradient
       x1="90.58992"
       y1="292.36218"
       x2="250.18001"
       y2="292.36218"
       id="linearGradient2907"
       xlink:href="#linearGradient3165"
       gradientUnits="userSpaceOnUse"
       gradientTransform="matrix(0.8317353,0,0,0.8368438,27.650334,44.986416)" />
    <linearGradient
       x1="168.57144"
       y1="200.43361"
       x2="168.57144"
       y2="384.29077"
       id="linearGradient3700"
       xlink:href="#linearGradient3141"
       gradientUnits="userSpaceOnUse" />
    <linearGradient
       x1="90.58992"
       y1="292.36218"
       x2="250.18001"
       y2="292.36218"
       id="linearGradient3702"
       xlink:href="#linearGradient3165"
       gradientUnits="userSpaceOnUse"
       gradientTransform="matrix(0.8317353,0,0,0.8368438,27.650334,44.986416)" />
    <linearGradient
       x1="168.57144"
       y1="200.43361"
       x2="168.57144"
       y2="384.29077"
       id="linearGradient2905-3"
       xlink:href="#linearGradient3141-0"
       gradientUnits="userSpaceOnUse" />
    <linearGradient
       id="linearGradient3141-0">
      <stop
         id="stop3143-2"
         style="stop-color:#d8d8d8;stop-opacity:1"
         offset="0" />
      <stop
         id="stop3145-9"
         style="stop-color:#a3a3a3;stop-opacity:1"
         offset="1" />
    </linearGradient>
    <linearGradient
       x1="90.58992"
       y1="292.36218"
       x2="250.18001"
       y2="292.36218"
       id="linearGradient2907-6"
       xlink:href="#linearGradient3165-0"
       gradientUnits="userSpaceOnUse"
       gradientTransform="matrix(0.8317353,0,0,0.8368438,27.650334,44.986416)" />
    <linearGradient
       id="linearGradient3165-0">
      <stop
         id="stop3171-9"
         style="stop-color:#d7d7d7;stop-opacity:1"
         offset="0" />
      <stop
         id="stop3173-3"
         style="stop-color:#e7e7e7;stop-opacity:1"
         offset="0.5" />
      <stop
         id="stop3169-5"
         style="stop-color:#d7d7d7;stop-opacity:1"
         offset="1" />
    </linearGradient>
    <linearGradient
       x1="168.57144"
       y1="200.43361"
       x2="168.57144"
       y2="384.29077"
       id="linearGradient3700-4"
       xlink:href="#linearGradient3141-0"
       gradientUnits="userSpaceOnUse" />
    <linearGradient
       id="linearGradient3734">
      <stop
         id="stop3736"
         style="stop-color:#d8d8d8;stop-opacity:1"
         offset="0" />
      <stop
         id="stop3738"
         style="stop-color:#a3a3a3;stop-opacity:1"
         offset="1" />
    </linearGradient>
    <linearGradient
       x1="90.58992"
       y1="292.36218"
       x2="250.18001"
       y2="292.36218"
       id="linearGradient3702-3"
       xlink:href="#linearGradient3165-0"
       gradientUnits="userSpaceOnUse"
       gradientTransform="matrix(0.8317353,0,0,0.8368438,27.650334,44.986416)" />
    <linearGradient
       id="linearGradient3741">
      <stop
         id="stop3743"
         style="stop-color:#d7d7d7;stop-opacity:1"
         offset="0" />
      <stop
         id="stop3745"
         style="stop-color:#e7e7e7;stop-opacity:1"
         offset="0.5" />
      <stop
         id="stop3747"
         style="stop-color:#d7d7d7;stop-opacity:1"
         offset="1" />
    </linearGradient>
    <linearGradient
       x1="90.58992"
       y1="292.36218"
       x2="250.18001"
       y2="292.36218"
       id="linearGradient3760"
       xlink:href="#linearGradient3165-0"
       gradientUnits="userSpaceOnUse"
       gradientTransform="matrix(0.8317353,0,0,0.8368438,27.650334,44.986416)" />
    <linearGradient
       x1="168.57144"
       y1="200.43361"
       x2="168.57144"
       y2="384.29077"
       id="linearGradient2905-3-7"
       xlink:href="#linearGradient3141-0-2"
       gradientUnits="userSpaceOnUse" />
    <linearGradient
       id="linearGradient3141-0-2">
      <stop
         id="stop3143-2-3"
         style="stop-color:#d8d8d8;stop-opacity:1"
         offset="0" />
      <stop
         id="stop3145-9-5"
         style="stop-color:#a3a3a3;stop-opacity:1"
         offset="1" />
    </linearGradient>
    <linearGradient
       x1="90.58992"
       y1="292.36218"
       x2="250.18001"
       y2="292.36218"
       id="linearGradient2907-6-1"
       xlink:href="#linearGradient3165-0-7"
       gradientUnits="userSpaceOnUse"
       gradientTransform="matrix(0.8317353,0,0,0.8368438,27.650334,44.986416)" />
    <linearGradient
       id="linearGradient3165-0-7">
      <stop
         id="stop3171-9-8"
         style="stop-color:#d7d7d7;stop-opacity:1"
         offset="0" />
      <stop
         id="stop3173-3-9"
         style="stop-color:#e7e7e7;stop-opacity:1"
         offset="0.5" />
      <stop
         id="stop3169-5-4"
         style="stop-color:#d7d7d7;stop-opacity:1"
         offset="1" />
    </linearGradient>
    <linearGradient
       x1="168.57144"
       y1="200.43361"
       x2="168.57144"
       y2="384.29077"
       id="linearGradient2905-1"
       xlink:href="#linearGradient3141-6"
       gradientUnits="userSpaceOnUse" />
    <linearGradient
       id="linearGradient3141-6">
      <stop
         id="stop3143-4"
         style="stop-color:#d8d8d8;stop-opacity:1"
         offset="0" />
      <stop
         id="stop3145-3"
         style="stop-color:#a3a3a3;stop-opacity:1"
         offset="1" />
    </linearGradient>
    <linearGradient
       x1="90.58992"
       y1="292.36218"
       x2="250.18001"
       y2="292.36218"
       id="linearGradient2907-5"
       xlink:href="#linearGradient3165-4"
       gradientUnits="userSpaceOnUse"
       gradientTransform="matrix(0.8317353,0,0,0.8368438,27.650334,44.986416)" />
    <linearGradient
       id="linearGradient3165-4">
      <stop
         id="stop3171-8"
         style="stop-color:#d7d7d7;stop-opacity:1"
         offset="0" />
      <stop
         id="stop3173-7"
         style="stop-color:#e7e7e7;stop-opacity:1"
         offset="0.5" />
      <stop
         id="stop3169-3"
         style="stop-color:#d7d7d7;stop-opacity:1"
         offset="1" />
    </linearGradient>
    <linearGradient
       x1="90.58992"
       y1="292.36218"
       x2="250.18001"
       y2="292.36218"
       id="linearGradient3904"
       xlink:href="#linearGradient3165-4"
       gradientUnits="userSpaceOnUse"
       gradientTransform="matrix(0.8317353,0,0,0.8368438,27.650334,44.986416)" />
    <linearGradient
       inkscape:collect="always"
       xlink:href="#linearGradient3141-0-2"
       id="linearGradient3096"
       gradientUnits="userSpaceOnUse"
       x1="168.57144"
       y1="200.43361"
       x2="168.57144"
       y2="384.29077" />
    <linearGradient
       inkscape:collect="always"
       xlink:href="#linearGradient3165-0-7"
       id="linearGradient3098"
       gradientUnits="userSpaceOnUse"
       gradientTransform="matrix(0.8317353,0,0,0.8368438,27.650334,44.986416)"
       x1="90.58992"
       y1="292.36218"
       x2="250.18001"
       y2="292.36218" />
    <linearGradient
       x1="168.57144"
       y1="200.43361"
       x2="168.57144"
       y2="384.29077"
       id="linearGradient3700-4-6"
       xlink:href="#linearGradient3141-0-28"
       gradientUnits="userSpaceOnUse" />
    <linearGradient
       id="linearGradient3141-0-28">
      <stop
         id="stop3143-2-9"
         style="stop-color:#d8d8d8;stop-opacity:1"
         offset="0" />
      <stop
         id="stop3145-9-6"
         style="stop-color:#a3a3a3;stop-opacity:1"
         offset="1" />
    </linearGradient>
    <linearGradient
       x1="90.58992"
       y1="292.36218"
       x2="250.18001"
       y2="292.36218"
       id="linearGradient3760-0"
       xlink:href="#linearGradient3165-0-70"
       gradientUnits="userSpaceOnUse"
       gradientTransform="matrix(0.8317353,0,0,0.8368438,27.650334,44.986416)" />
    <linearGradient
       id="linearGradient3165-0-70">
      <stop
         id="stop3171-9-1"
         style="stop-color:#d7d7d7;stop-opacity:1"
         offset="0" />
      <stop
         id="stop3173-3-0"
         style="stop-color:#e7e7e7;stop-opacity:1"
         offset="0.5" />
      <stop
         id="stop3169-5-1"
         style="stop-color:#d7d7d7;stop-opacity:1"
         offset="1" />
    </linearGradient>
    <linearGradient
       y2="292.36218"
       x2="250.18001"
       y1="292.36218"
       x1="90.58992"
       gradientTransform="matrix(0.8317353,0,0,0.8368438,27.650334,44.986416)"
       gradientUnits="userSpaceOnUse"
       id="linearGradient3208"
       xlink:href="#linearGradient3165-0-70"
       inkscape:collect="always" />
    <linearGradient
       x1="168.57144"
       y1="200.43361"
       x2="168.57144"
       y2="384.29077"
       id="linearGradient2905-3-7-4"
       xlink:href="#linearGradient3141-0-2-5"
       gradientUnits="userSpaceOnUse" />
    <linearGradient
       id="linearGradient3141-0-2-5">
      <stop
         id="stop3143-2-3-2"
         style="stop-color:#d8d8d8;stop-opacity:1"
         offset="0" />
      <stop
         id="stop3145-9-5-0"
         style="stop-color:#a3a3a3;stop-opacity:1"
         offset="1" />
    </linearGradient>
    <linearGradient
       x1="90.58992"
       y1="292.36218"
       x2="250.18001"
       y2="292.36218"
       id="linearGradient2907-6-1-2"
       xlink:href="#linearGradient3165-0-7-9"
       gradientUnits="userSpaceOnUse"
       gradientTransform="matrix(0.8317353,0,0,0.8368438,27.650334,44.986416)" />
    <linearGradient
       id="linearGradient3165-0-7-9">
      <stop
         id="stop3171-9-8-0"
         style="stop-color:#d7d7d7;stop-opacity:1"
         offset="0" />
      <stop
         id="stop3173-3-9-9"
         style="stop-color:#e7e7e7;stop-opacity:1"
         offset="0.5" />
      <stop
         id="stop3169-5-4-9"
         style="stop-color:#d7d7d7;stop-opacity:1"
         offset="1" />
    </linearGradient>
    <linearGradient
       y2="292.36218"
       x2="250.18001"
       y1="292.36218"
       x1="90.58992"
       gradientTransform="matrix(0.8317353,0,0,0.8368438,27.650334,44.986416)"
       gradientUnits="userSpaceOnUse"
       id="linearGradient3321"
       xlink:href="#linearGradient3165-0-7-9"
       inkscape:collect="always" />
    <linearGradient
       x1="168.57144"
       y1="200.43361"
       x2="168.57144"
       y2="384.29077"
       id="linearGradient3700-4-6-7"
       xlink:href="#linearGradient3141-0-28-5"
       gradientUnits="userSpaceOnUse" />
    <linearGradient
       id="linearGradient3141-0-28-5">
      <stop
         id="stop3143-2-9-9"
         style="stop-color:#d8d8d8;stop-opacity:1"
         offset="0" />
      <stop
         id="stop3145-9-6-7"
         style="stop-color:#a3a3a3;stop-opacity:1"
         offset="1" />
    </linearGradient>
    <linearGradient
       y2="292.36218"
       x2="250.18001"
       y1="292.36218"
       x1="90.58992"
       gradientTransform="matrix(0.8317353,0,0,0.8368438,27.650334,44.986416)"
       gradientUnits="userSpaceOnUse"
       id="linearGradient3208-8"
       xlink:href="#linearGradient3165-0-70-5"
       inkscape:collect="always" />
    <linearGradient
       id="linearGradient3165-0-70-5">
      <stop
         id="stop3171-9-1-3"
         style="stop-color:#d7d7d7;stop-opacity:1"
         offset="0" />
      <stop
         id="stop3173-3-0-3"
         style="stop-color:#e7e7e7;stop-opacity:1"
         offset="0.5" />
      <stop
         id="stop3169-5-1-8"
         style="stop-color:#d7d7d7;stop-opacity:1"
         offset="1" />
    </linearGradient>
    <linearGradient
       y2="292.36218"
       x2="250.18001"
       y1="292.36218"
       x1="90.58992"
       gradientTransform="matrix(0.8317353,0,0,0.8368438,27.650334,44.986416)"
       gradientUnits="userSpaceOnUse"
       id="linearGradient3385"
       xlink:href="#linearGradient3165-0-70-5"
       inkscape:collect="always" />
    <linearGradient
       inkscape:collect="always"
       xlink:href="#linearGradient3165-0-70"
       id="linearGradient3322"
       gradientUnits="userSpaceOnUse"
       gradientTransform="matrix(0.8317353,0,0,0.8368438,32.22176,-155.44719)"
       x1="90.58992"
       y1="292.36218"
       x2="250.18001"
       y2="292.36218" />
    <linearGradient
       inkscape:collect="always"
       xlink:href="#linearGradient3141-0-28"
       id="linearGradient3325"
       gradientUnits="userSpaceOnUse"
       x1="168.57144"
       y1="200.43361"
       x2="168.57144"
       y2="384.29077"
       gradientTransform="translate(4.5714264,-200.43361)" />
    <linearGradient
       y2="292.36218"
       x2="250.18001"
       y1="292.36218"
       x1="90.58992"
       gradientTransform="matrix(1.2117886,0,0,0.83590146,-73.45152,47.976234)"
       gradientUnits="userSpaceOnUse"
       id="linearGradient3168"
       xlink:href="#linearGradient3165-0-70-1"
       inkscape:collect="always" />
    <linearGradient
       id="linearGradient3165-0-70-1">
      <stop
         id="stop3171-9-1-2"
         style="stop-color:#d7d7d7;stop-opacity:1"
         offset="0" />
      <stop
         id="stop3173-3-0-8"
         style="stop-color:#e7e7e7;stop-opacity:1"
         offset="0.5" />
      <stop
         id="stop3169-5-1-89"
         style="stop-color:#d7d7d7;stop-opacity:1"
         offset="1" />
    </linearGradient>
    <linearGradient
       y2="292.36218"
       x2="250.18001"
       y1="292.36218"
       x1="90.58992"
       gradientTransform="matrix(1.2117886,0,0,0.83590146,-68.880097,-152.45737)"
       gradientUnits="userSpaceOnUse"
       id="linearGradient3947"
       xlink:href="#linearGradient3165-0-70-1"
       inkscape:collect="always" />
  </defs>
  <g
     style="font-size:40px;font-style:normal;font-weight:normal;fill:#515151;fill-opacity:1;stroke:none;font-family:Bitstream Vera Sans"
     id="flowRoot2909-9-9"
     transform="matrix(1.4243588,0,0,1.4243588,-345.61915,-447.65383)" />
  <g
     style="font-size:40px;font-style:normal;font-weight:normal;fill:#515151;fill-opacity:1;stroke:none;font-family:Bitstream Vera Sans"
     id="flowRoot2909-9-9-9"
     transform="matrix(1.4243588,0,0,1.4243588,-339.55823,-518.36451)" />
  <rect
     style="fill:url(#linearGradient3325);fill-opacity:1;fill-rule:evenodd;stroke:#8d8d8d;stroke-width:1px;stroke-linecap:butt;stroke-linejoin:miter;stroke-opacity:1"
     id="rect2168-4"
     y="0.49999902"
     x="0.5"
     ry="21.428572"
     height="182.85716"
     width="269.78571" />
  <rect
     style="fill:url(#linearGradient3947);fill-opacity:1;fill-rule:evenodd;stroke:#f8f8f8;stroke-width:1.00644708px;stroke-linecap:butt;stroke-linejoin:miter;stroke-opacity:1;display:inline"
     id="rect3157-3-2"
     y="15.503303"
     x="17.676231"
     ry="17.91217"
     height="152.85056"
     width="235.43324" />
  <text
     xml:space="preserve"
     style="font-size:40px;font-style:normal;font-weight:normal;line-height:125%;letter-spacing:0px;word-spacing:0px;fill:#000000;fill-opacity:1;stroke:none;font-family:Sans"
     x="34.135437"
     y="146.28008"
     id="text3065"
     sodipodi:linespacing="125%"><tspan
       sodipodi:role="line"
       id="tspan3067"
       x="34.135437"
       y="146.28008"
       style="font-size:48px;font-style:normal;font-variant:normal;font-weight:normal;font-stretch:normal;font-family:Ubuntu;-inkscape-font-specification:Ubuntu">     super</tspan></text>
  <text
     xml:space="preserve"
     style="font-size:40px;font-style:normal;font-weight:normal;line-height:125%;letter-spacing:0px;word-spacing:0px;fill:#000000;fill-opacity:1;stroke:none;font-family:Sans"
     x="27.443937"
     y="75.753143"
     id="text3065-3"
     sodipodi:linespacing="125%"><tspan
       sodipodi:role="line"
       id="tspan3067-4"
       x="27.443937"
       y="75.753143"
       style="font-size:48px;font-style:normal;font-variant:normal;font-weight:normal;font-stretch:normal;font-family:Ubuntu;-inkscape-font-specification:Ubuntu">⌘</tspan></text>
  <g
     transform="matrix(0.42336225,0,0,0.42336225,32.326207,109.33554)"
     id="g5612">
    <path
       inkscape:connector-curvature="0"
       style="fill:#000000"
       id="path34"
       d="m 28.949,41.206 c -1.623,0.04 -3.335,0.208 -5.091,0.499 -1.841,0.306 -3.793,0.758 -5.799,1.342 -2.092,0.605 -4.316,1.381 -6.606,2.301 l -0.016,0.003 c -0.078,0.034 -0.133,0.099 -0.159,0.182 L 2.156,76.436 c -0.05,0.164 0.041,0.33 0.145,0.42 l 0.61,0.453 c 0,0 0.011,0.007 0.019,0.017 0.147,0.098 0.296,0.093 0.355,0.084 0.002,0 0.018,-0.006 0.018,-0.006 3.417,-1.284 6.462,-2.204 9.311,-2.818 2.777,-0.596 5.279,-0.879 7.647,-0.867 1.982,0.013 3.844,0.219 5.695,0.62 1.672,0.366 3.298,0.89 4.968,1.602 2.342,1.02 4.49,2.304 6.098,3.304 l 0.015,0.008 c 0,0 0,0.007 -10e-4,0.007 0.05,0.024 0.2,0.093 0.343,0.028 0,0 0.402,-0.229 0.523,-0.302 l 0,0 0.042,-0.026 c 0.082,-0.057 0.192,-0.13 0.226,-0.271 l 0.006,-0.029 c 0,0 0.003,0.005 0.004,0.007 0.018,-0.06 9.079,-30.095 9.079,-30.095 l 0.312,-1.032 c 0.005,-0.024 0.008,-0.056 0.008,-0.082 0,-0.119 -0.052,-0.229 -0.139,-0.29 -0.003,0 -0.01,-0.002 -0.01,-0.002 L 47.429,47.165 C 43.565,44.629 39.197,42.182 33.44,41.437 31.997,41.243 30.485,41.17 28.949,41.206 z"
       enable-background="new    " />
    <path
       inkscape:connector-curvature="0"
       style="fill:#000000"
       id="path41"
       d="m 51.627,50.359 0,0 c -0.106,0.004 -0.214,0.047 -0.379,0.146 0,0.004 -10e-4,0.005 -10e-4,0.005 l -0.004,0.001 -0.002,0.004 c -0.041,0.027 -0.146,0.101 -0.267,0.189 -0.244,0.187 -0.395,0.337 -0.438,0.439 h -0.001 c 0,0 0,0 -10e-4,0 -10e-4,0.007 -0.009,0.026 -0.009,0.026 l 0.002,-0.009 -0.002,0.011 v 0.004 l -9.131,30.62 c -0.158,0.459 0.263,0.71 0.311,0.736 2.342,1.521 4.576,2.72 6.828,3.656 1.32,0.555 2.67,1.023 4.015,1.398 1.458,0.409 2.956,0.726 4.458,0.936 1.61,0.224 3.271,0.335 4.938,0.331 1.771,-0.009 3.606,-0.146 5.45,-0.413 1.949,-0.28 3.968,-0.713 6,-1.286 2.136,-0.6 4.348,-1.373 6.58,-2.296 0.003,0 0.014,-0.009 0.014,-0.009 0.062,-0.039 0.21,-0.13 0.286,-0.278 0,-0.003 8.917,-30.123 8.92,-30.133 0,-0.002 -0.003,-0.006 -0.003,-0.006 V 54.43 c 0.012,-0.045 0.014,-0.088 0.014,-0.129 0,-0.248 -0.159,-0.397 -0.161,-0.4 0,0.003 -0.748,-0.573 -0.748,-0.573 l 0,0 -0.002,-0.005 c -0.049,-0.053 -0.18,-0.135 -0.499,-0.09 -2.287,0.751 -4.497,1.372 -6.575,1.859 -2.002,0.466 -3.943,0.815 -5.772,1.037 -3.45,0.425 -6.569,0.425 -9.538,0 -2.613,-0.369 -5.085,-1.072 -7.555,-2.146 -1.995,-0.864 -4.028,-1.984 -6.398,-3.531 l -0.008,-0.004 0.003,10e-4 c -0.143,-0.064 -0.236,-0.09 -0.325,-0.09 z"
       enable-background="new    " />
    <path
       inkscape:connector-curvature="0"
       style="fill:#000000"
       id="path48"
       d="m 62.061,13.066 c -0.002,0 -0.157,0.109 -0.157,0.109 -0.314,0.227 -0.5,0.402 -0.552,0.522 l -0.002,0.004 c 0,0 0,10e-4 -0.002,10e-4 0,0.004 -0.031,0.104 -0.031,0.104 0,0.005 -9.16,30.691 -9.16,30.691 -0.025,0.072 -0.037,0.142 -0.037,0.202 0,0.336 0.311,0.507 0.318,0.508 l 0,0 h 0.002 c 0.726,0.473 1.476,0.926 2.229,1.346 3.515,2.121 6.99,3.53 10.622,4.309 2.103,0.454 4.291,0.694 6.502,0.716 2.39,0.021 4.893,-0.211 7.431,-0.689 3.767,-0.578 7.594,-1.715 11.372,-3.372 0,-0.002 0.01,-0.006 0.01,-0.006 0.072,-0.033 0.227,-0.134 0.306,-0.282 0,-0.006 9.316,-30.973 9.316,-30.973 0.017,-0.056 0.027,-0.107 0.027,-0.158 0,-0.267 -0.233,-0.489 -0.459,-0.683 -0.125,-0.115 -0.298,-0.265 -0.417,-0.313 -0.253,-0.116 -0.511,-0.078 -0.589,-0.033 -0.002,0 -0.007,0.007 -0.007,0.007 l -0.002,0.002 c -2.281,0.91 -4.496,1.674 -6.587,2.273 -2,0.572 -3.95,1.009 -5.792,1.299 -1.754,0.276 -3.469,0.428 -5.099,0.45 -1.538,0.021 -3.052,-0.067 -4.503,-0.271 -2.604,-0.365 -5.097,-1.092 -7.614,-2.22 -2.502,-1.118 -4.744,-2.514 -6.42,-3.604 -0.288,-0.129 -0.414,-0.119 -0.705,0.061 z"
       enable-background="new    " />
    <path
       inkscape:connector-curvature="0"
       style="fill:#000000"
       id="path55"
       d="M 32.409,4.48 C 29.248,5.143 25.796,6.222 22.146,7.682 v 10e-4 c -0.032,0.013 -0.135,0.053 -0.169,0.185 l -0.474,1.581 -8.784,29.423 c -0.01,0.029 -0.014,0.064 -0.014,0.104 0,0.144 0.063,0.32 0.136,0.37 0.014,0.011 0.03,0.02 0.042,0.025 l 0.002,0.002 0.06,0.044 0.54,0.411 0.016,0.01 c 0.018,0.014 0.038,0.025 0.05,0.034 0.111,0.044 0.139,0.044 0.168,0.041 h 0.01 l 0,0 c 0,-0.002 0.004,-0.002 0.004,-0.002 l 0,0 v -0.002 l 0.017,-0.005 c 0.08,-0.007 0.268,-0.088 0.269,-0.09 8.001,-3.071 14.4,-4.188 20.138,-3.509 2.447,0.29 4.815,0.917 7.239,1.913 1.93,0.795 3.923,1.835 6.266,3.272 l 0.033,0.015 h 0.007 l 0.028,0.014 0.003,0.001 h 0.003 l 0.008,0.005 0.009,0.007 H 47.75 c 10e-4,0 0.185,0.089 0.338,0.05 0,-0.002 0.576,-0.254 0.576,-0.254 l 0,0 0,0 0.027,-0.018 c 0.077,-0.055 0.195,-0.137 0.229,-0.283 l 0,0 h 10e-4 c 0,-10e-4 0,-10e-4 0,-10e-4 l 5.777,-19.318 3.105,-10.381 0.208,-0.687 c 0,-0.002 10e-4,-0.016 10e-4,-0.016 0,-0.001 0.15,-0.504 0.15,-0.504 0.004,-0.017 0.006,-0.033 0.009,-0.054 0,-0.013 10e-4,-0.026 10e-4,-0.041 0,-0.115 -0.049,-0.218 -0.136,-0.274 C 56.201,8.548 54.744,7.68 53.314,6.938 L 53.217,6.889 C 49.086,4.758 45.112,3.723 40.709,3.633 38.128,3.582 35.334,3.865 32.409,4.48 z"
       enable-background="new    " />
  </g>
</svg>
